<?xml version="1.0" encoding="UTF-8" standalone="no"?>
<svg
   viewBox="0 0 290.29001 280.71289"
   version="1.1"
   id="svg50"
   sodipodi:docname="logo-photo.svg"
   width="290.29001"
   height="280.71289"
   inkscape:version="1.1.2 (b8e25be833, 2022-02-05)"
   xmlns:inkscape="http://www.inkscape.org/namespaces/inkscape"
   xmlns:sodipodi="http://sodipodi.sourceforge.net/DTD/sodipodi-0.dtd"
   xmlns="http://www.w3.org/2000/svg"
   xmlns:svg="http://www.w3.org/2000/svg">
  <sodipodi:namedview
     id="namedview52"
     pagecolor="#ffffff"
     bordercolor="#666666"
     borderopacity="1.0"
     inkscape:pageshadow="2"
     inkscape:pageopacity="0.0"
     inkscape:pagecheckerboard="0"
     showgrid="false"
     fit-margin-top="0"
     fit-margin-left="0"
     fit-margin-right="0"
     fit-margin-bottom="0"
     inkscape:zoom="1.662"
     inkscape:cx="138.68833"
     inkscape:cy="140.79422"
     inkscape:window-width="1680"
     inkscape:window-height="987"
     inkscape:window-x="1912"
     inkscape:window-y="-8"
     inkscape:window-maximized="1"
     inkscape:current-layer="svg50" />
  <defs
     id="defs4">
    <style
       id="style2">.cls-1{fill:#252525;}.cls-2{fill:#333;}.cls-3{fill:#010101;}.cls-4{fill:#6d6d6d;}.cls-5{fill:#565656;}.cls-6{fill:#eaeaea;}.cls-7{fill:#fcfcfc;}.cls-8{fill:#1a1a1a;}</style>
  </defs>
  <g
     id="Calque_1"
     data-name="Calque 1"
     transform="translate(-111.42,-108.99395)">
    <path
       class="cls-1"
       d="M 227.56,142.57 A 80.26,80.26 0 1 1 147,222.82 80.1,80.1 0 0 1 227.56,142.57 Z m 66.62,79.62 c 0,-36.08 -29.35,-65.13 -65.78,-65.11 -36.43,0.02 -66.2,29.35 -66.18,65 0,35.93 29.52,64.94 66.07,65 36.78,-0.03 65.88,-28.67 65.89,-64.89 z"
       id="path6" />
    <path
       class="cls-2"
       d="m 111.42,224.43 c 0.25,-46.2 27.44,-88.41 70.34,-105.57 45.53,-18.22 87.16,-10.2 123.86,22.52 a 31.92,31.92 0 0 1 4.11,4.35 c 1.92,2.53 1.44,5 -0.79,7.13 -2.23,2.13 -4.59,2.69 -7.17,0.82 a 31.53,31.53 0 0 1 -3.3,-3 A 103.18,103.18 0 1 0 217,327.16 c 33.3,2.87 61.5,-8.35 84.79,-32.18 2.21,-2.26 4.17,-5.07 8,-3.15 4.77,2.4 5.23,6 1,10.45 -18,19.26 -40,31.57 -66.08,35.47 -65.21,9.76 -122.71,-33.17 -132.09,-98.39 -0.72,-4.94 -0.82,-9.96 -1.2,-14.93 z"
       id="path8" />
    <path
       class="cls-3"
       d="m 341.37,223.32 c 0,20.85 -5.26,39.05 -14.06,56.38 -1.12,2.21 -1.79,4.09 -5,2.17 -2.58,-1.56 -3.49,-2.45 -1.87,-5.59 10.3,-20 15.44,-41 12.69,-63.63 A 110.17,110.17 0 0 0 319.7,172.17 c -1.75,-3.15 -1.81,-4.6 1.63,-6.46 4.07,-2.19 4.16,1.27 5.13,3.06 9.43,17.41 15.09,35.85 14.91,54.55 z"
       id="path10" />
    <path
       class="cls-4"
       d="m 294.18,222.19 c 0,36.22 -29.11,64.86 -65.89,64.85 -36.55,0 -66.06,-29 -66.07,-65 0,-35.65 29.85,-65 66.18,-65 36.33,0 65.78,29.07 65.78,65.15 z m -8.08,-0.49 c 1.36,-30 -24.76,-57.94 -57.67,-57.6 -31.35,0.33 -57.64,23.76 -57.8,57.86 -0.16,34.89 28,58 58,58.13 30.37,0.18 59.09,-25.95 57.47,-58.39 z"
       id="path12" />
    <path
       class="cls-5"
       d="m 286.1,221.7 c 1.62,32.44 -27.15,58.57 -57.44,58.39 -30,-0.18 -58.19,-23.24 -58,-58.13 0.16,-34.1 26.45,-57.53 57.8,-57.86 32.88,-0.34 59,27.61 57.64,57.6 z m -83,-9.67 c -0.15,1.65 -0.21,3.31 -0.46,4.94 -2.31,14.8 7,29.17 21.54,32.4 4.9,1.09 10.41,2.8 15,-1.49 1.33,3.9 3.75,6.64 8.13,6.63 a 7.51,7.51 0 0 0 7,-4.62 c 1.87,-3.88 0.25,-6.95 -2.43,-9.73 2.23,-0.42 3.21,-2.22 4.25,-3.9 11.1,-17.88 -1.7,-42.31 -22.71,-43.37 -2.14,-0.11 -4.32,0.09 -6.35,-0.88 -1.15,-1.39 -2.23,-2.85 -3.47,-4.16 a 15.68,15.68 0 0 0 -24.85,18.79 52.56,52.56 0 0 0 4.35,5.36 z"
       id="path14" />
    <path
       d="m 239.2,247.88 c -4.61,4.29 -10.12,2.58 -15,1.49 -14.59,-3.23 -23.85,-17.6 -21.54,-32.4 0.25,-1.63 0.31,-3.29 0.46,-4.94 1.38,0.55 2.73,1.18 4.14,1.65 a 15.73,15.73 0 0 0 20.74,-14.32 47.46,47.46 0 0 0 -0.91,-7.35 c 2,1 4.21,0.77 6.35,0.88 21,1.06 33.81,25.49 22.71,43.37 -1,1.68 -2,3.48 -4.25,3.9 -7.51,-3.07 -11.99,-0.35 -12.7,7.72 z"
       id="path16" />
    <path
       class="cls-6"
       d="m 227.1,192 a 47.46,47.46 0 0 1 0.91,7.35 15.73,15.73 0 0 1 -20.77,14.32 c -1.41,-0.47 -2.76,-1.1 -4.14,-1.65 a 52.56,52.56 0 0 1 -4.32,-5.39 15.68,15.68 0 0 1 24.85,-18.79 c 1.24,1.32 2.37,2.78 3.47,4.16 z"
       id="path18" />
    <path
       class="cls-7"
       d="m 239.2,247.88 c 0.71,-8.07 5.19,-10.79 12.71,-7.72 2.68,2.78 4.3,5.85 2.43,9.73 a 7.51,7.51 0 0 1 -7,4.62 c -4.34,0.01 -6.81,-2.73 -8.14,-6.63 z"
       id="path20" />
  </g>
  <g
     id="Calque_2"
     data-name="Calque 2"
     transform="translate(-111.42,-108.99395)">
    <path
       class="cls-8"
       d="m 149.4,389.7 a 22.31,22.31 0 0 1 -8.19,-1.51 19.2,19.2 0 0 1 -6.76,-4.44 21,21 0 0 1 -4.59,-7.32 28.12,28.12 0 0 1 -1.67,-10.11 27.39,27.39 0 0 1 1.75,-10.12 22.76,22.76 0 0 1 4.69,-7.52 19.57,19.57 0 0 1 6.86,-4.69 21.36,21.36 0 0 1 8.25,-1.61 17.19,17.19 0 0 1 7.92,1.78 21.81,21.81 0 0 1 5.81,4.17 l -5.47,6.58 a 17.58,17.58 0 0 0 -3.68,-2.63 9.18,9.18 0 0 0 -4.37,-1 9.77,9.77 0 0 0 -4.38,1 10.38,10.38 0 0 0 -3.57,2.91 14.39,14.39 0 0 0 -2.38,4.62 20.19,20.19 0 0 0 -0.87,6.16 q 0,7.06 3,10.95 a 9.69,9.69 0 0 0 8.06,3.89 10.1,10.1 0 0 0 5,-1.23 15.64,15.64 0 0 0 3.89,-3 l 5.46,6.44 a 18.54,18.54 0 0 1 -14.76,6.68 z"
       id="path23" />
    <path
       class="cls-8"
       d="m 179,389.7 a 11,11 0 0 1 -4.3,-0.81 9.21,9.21 0 0 1 -3.26,-2.24 10.49,10.49 0 0 1 -2.06,-3.32 11.31,11.31 0 0 1 -0.74,-4.13 9.72,9.72 0 0 1 4.62,-8.54 q 4.62,-3.09 14.91,-4.13 a 5.89,5.89 0 0 0 -1.36,-3.68 c -0.82,-0.91 -2.18,-1.36 -4.1,-1.36 a 12.39,12.39 0 0 0 -4.44,0.84 32.34,32.34 0 0 0 -4.73,2.31 l -3.71,-6.79 a 36,36 0 0 1 7,-3.29 23.88,23.88 0 0 1 7.8,-1.26 q 6.72,0 10.26,3.81 3.54,3.81 3.57,11.89 v 19.88 h -8.4 l -0.7,-3.57 h -0.28 a 22.31,22.31 0 0 1 -4.69,3.18 11.83,11.83 0 0 1 -5.39,1.21 z m 3.5,-8 a 5.68,5.68 0 0 0 3,-0.77 15,15 0 0 0 2.66,-2.17 v -6.09 q -5.46,0.76 -7.56,2.24 a 4.22,4.22 0 0 0 -2.1,3.5 2.86,2.86 0 0 0 1.09,2.48 4.73,4.73 0 0 0 2.91,0.83 z"
       id="path25" />
    <path
       class="cls-8"
       d="m 207.14,354.14 h 8.4 l 0.7,4.41 h 0.28 a 28.4,28.4 0 0 1 4.9,-3.68 12,12 0 0 1 6.23,-1.57 c 3.78,0 6.52,1.23 8.23,3.71 1.71,2.48 2.55,5.9 2.55,10.29 v 21.56 h -10.29 v -20.24 c 0,-2.51 -0.34,-4.24 -1,-5.17 a 3.74,3.74 0 0 0 -3.26,-1.4 6.27,6.27 0 0 0 -3.36,0.87 19.31,19.31 0 0 0 -3.08,2.49 v 23.45 h -10.3 z"
       id="path27" />
    <path
       class="cls-8"
       d="m 260.55,389.7 a 13.89,13.89 0 0 1 -5.49,-1 9.68,9.68 0 0 1 -3.71,-2.73 11,11 0 0 1 -2.1,-4.24 21,21 0 0 1 -0.67,-5.49 v -14.05 h -4.76 v -7.63 l 5.32,-0.42 1.19,-9.24 h 8.54 v 9.24 h 8.33 v 8.05 h -8.33 v 13.93 a 6,6 0 0 0 1.23,4.23 4.27,4.27 0 0 0 3.25,1.3 7.42,7.42 0 0 0 1.72,-0.21 12.18,12.18 0 0 0 1.57,-0.49 l 1.61,7.49 c -0.93,0.28 -2,0.56 -3.29,0.84 a 20.5,20.5 0 0 1 -4.41,0.42 z"
       id="path29" />
    <path
       class="cls-8"
       d="m 279.1,349 a 6.17,6.17 0 0 1 -4.27,-1.51 5,5 0 0 1 -1.68,-3.88 4.87,4.87 0 0 1 1.68,-3.85 7,7 0 0 1 8.58,0 4.93,4.93 0 0 1 1.64,3.85 5,5 0 0 1 -1.64,3.88 6.17,6.17 0 0 1 -4.31,1.51 z m -5.1,5.14 h 10.29 v 34.72 H 274 Z"
       id="path31" />
    <path
       class="cls-8"
       d="m 293.31,354.14 h 8.4 l 0.7,4.41 h 0.28 a 28,28 0 0 1 4.9,-3.68 12,12 0 0 1 6.23,-1.57 c 3.78,0 6.52,1.23 8.23,3.71 1.71,2.48 2.55,5.9 2.55,10.29 v 21.56 h -10.29 v -20.24 c 0,-2.51 -0.34,-4.24 -1,-5.17 a 3.75,3.75 0 0 0 -3.26,-1.4 6.22,6.22 0 0 0 -3.36,0.87 19.31,19.31 0 0 0 -3.08,2.49 v 23.45 h -10.3 z"
       id="path33" />
    <path
       class="cls-8"
       d="m 351.8,131 a 24,24 0 0 1 1.5,-8.51 20.19,20.19 0 0 1 4.45,-7 21,21 0 0 1 7.31,-4.77 27.26,27.26 0 0 1 10.12,-1.72 26.53,26.53 0 0 1 10.11,1.82 22.61,22.61 0 0 1 7.53,4.87 20.64,20.64 0 0 1 4.69,7.12 23.23,23.23 0 0 1 1.61,8.58 18.39,18.39 0 0 1 -1.79,8.22 22.67,22.67 0 0 1 -4.16,6 L 386.59,140 a 18,18 0 0 0 2.62,-3.81 9.89,9.89 0 0 0 1,-4.55 10.43,10.43 0 0 0 -1,-4.54 10.62,10.62 0 0 0 -2.9,-3.71 14.13,14.13 0 0 0 -4.62,-2.47 19.32,19.32 0 0 0 -6.16,-0.91 q -7.06,0 -11,3.13 a 10.17,10.17 0 0 0 -3.88,8.36 11,11 0 0 0 1.22,5.2 16.22,16.22 0 0 0 3,4 l -6.44,5.67 A 19.57,19.57 0 0 1 351.8,131 Z"
       id="path35" />
    <path
       class="cls-8"
       d="m 401.71,160 v 10.69 h -12 l -6.23,-0.51 a 28.77,28.77 0 0 1 3.26,4.72 13,13 0 0 1 1.5,6.4 q 0,5.89 -3.71,8.54 -3.71,2.65 -10.29,2.66 h -21.6 v -10.72 h 20.23 q 3.78,0 5.18,-1.05 a 4,4 0 0 0 1.4,-3.39 6.54,6.54 0 0 0 -0.88,-3.48 19.64,19.64 0 0 0 -2.48,-3.2 H 352.64 V 160 Z"
       id="path37" />
    <path
       class="cls-8"
       d="m 351.8,217.84 a 12.06,12.06 0 0 1 0.8,-4.47 9.75,9.75 0 0 1 2.24,-3.38 10.39,10.39 0 0 1 3.33,-2.14 10.92,10.92 0 0 1 4.13,-0.77 9.63,9.63 0 0 1 8.54,4.8 q 3.07,4.8 4.13,15.49 a 5.72,5.72 0 0 0 3.67,-1.42 c 0.91,-0.85 1.37,-2.27 1.37,-4.25 a 13.36,13.36 0 0 0 -0.84,-4.62 34.23,34.23 0 0 0 -2.31,-4.91 l 6.79,-3.85 a 38.67,38.67 0 0 1 3.29,7.31 25.63,25.63 0 0 1 1.26,8.1 q 0,7 -3.82,10.66 -3.82,3.66 -11.86,3.67 h -19.88 v -8.73 l 3.57,-0.72 v -0.3 a 23,23 0 0 1 -3.19,-4.87 12.8,12.8 0 0 1 -1.22,-5.6 z m 8,3.64 a 6.13,6.13 0 0 0 0.77,3.13 15.28,15.28 0 0 0 2.17,2.76 h 6.09 c -0.52,-3.78 -1.26,-6.4 -2.24,-7.85 a 4.19,4.19 0 0 0 -3.5,-2.18 2.86,2.86 0 0 0 -2.49,1.12 5.15,5.15 0 0 0 -0.82,3.02 z"
       id="path39" />
    <path
       class="cls-8"
       d="m 387.36,254.34 v 8.73 l -6.09,0.73 v 0.29 a 13.62,13.62 0 0 1 5.25,4.72 10.57,10.57 0 0 1 1.68,5.53 14.38,14.38 0 0 1 -0.18,2.51 7.72,7.72 0 0 1 -0.52,1.78 l -8.89,-1.75 A 18.27,18.27 0 0 0 379,275 a 13.38,13.38 0 0 0 0.14,-2 8,8 0 0 0 -1.4,-4.26 10.2,10.2 0 0 0 -5,-3.67 h -20.1 v -10.73 z"
       id="path41" />
    <path
       class="cls-8"
       d="m 351.8,300.37 a 11.52,11.52 0 0 1 0.84,-4.66 7.46,7.46 0 0 1 2.34,-3 9.89,9.89 0 0 1 3.64,-1.64 20.79,20.79 0 0 1 4.8,-0.51 h 38.29 v 10.69 H 363 a 3.19,3.19 0 0 0 -2.24,0.62 1.8,1.8 0 0 0 -0.63,1.27 v 0.62 a 2.53,2.53 0 0 0 0.14,0.69 l -7.63,1.31 a 12.38,12.38 0 0 1 -0.6,-2.22 18.24,18.24 0 0 1 -0.24,-3.17 z"
       id="path43" />
    <path
       class="cls-8"
       d="m 351.8,334.76 a 20.93,20.93 0 0 1 1.22,-7.2 16.81,16.81 0 0 1 3.57,-5.82 16.45,16.45 0 0 1 5.71,-3.85 20.14,20.14 0 0 1 7.7,-1.38 19.06,19.06 0 0 1 7.59,1.45 17.9,17.9 0 0 1 5.74,3.82 17.22,17.22 0 0 1 3.61,18.47 13.37,13.37 0 0 1 -3.5,4.8 14.72,14.72 0 0 1 -5.29,2.87 22.19,22.19 0 0 1 -6.61,0.94 22.62,22.62 0 0 1 -2.66,-0.14 18.64,18.64 0 0 1 -1.89,-0.29 v -21.6 a 8.51,8.51 0 0 0 -5.57,3.24 10.31,10.31 0 0 0 -1.78,6.14 15.23,15.23 0 0 0 2.36,7.79 l -6.23,3.57 a 24.27,24.27 0 0 1 -2.87,-6.15 22.32,22.32 0 0 1 -1.1,-6.66 z m 22,5 a 7.67,7.67 0 0 0 4.76,-1.39 q 1.81,-1.38 1.82,-4.65 a 6.76,6.76 0 0 0 -1.61,-4.47 8,8 0 0 0 -5,-2.51 z"
       id="path45" />
    <path
       class="cls-8"
       d="m 351.8,374.17 a 21.69,21.69 0 0 1 1.33,-7.31 22.73,22.73 0 0 1 3.5,-6.51 l 6.44,4.8 a 22.36,22.36 0 0 0 -2.73,4.73 12.07,12.07 0 0 0 -0.91,4.58 6.2,6.2 0 0 0 0.77,3.49 2.49,2.49 0 0 0 2.17,1.09 2.19,2.19 0 0 0 1.51,-0.62 6.28,6.28 0 0 0 1.22,-1.67 18,18 0 0 0 1,-2.36 c 0.3,-0.88 0.64,-1.77 1,-2.69 a 34.82,34.82 0 0 1 1.47,-3.35 14.21,14.21 0 0 1 2.06,-3.05 10.23,10.23 0 0 1 2.88,-2.26 8,8 0 0 1 3.81,-0.87 10,10 0 0 1 4.41,1 9.58,9.58 0 0 1 3.43,2.8 14,14 0 0 1 2.2,4.36 18.67,18.67 0 0 1 0.81,5.67 18.08,18.08 0 0 1 -1.37,7.28 29.43,29.43 0 0 1 -3,5.45 l -6.16,-4.8 a 19.1,19.1 0 0 0 2.17,-3.85 10,10 0 0 0 0.77,-3.78 q 0,-4.08 -2.73,-4.08 a 2,2 0 0 0 -1.44,0.59 5.92,5.92 0 0 0 -1.08,1.56 18.88,18.88 0 0 0 -0.94,2.25 c -0.31,0.85 -0.62,1.74 -0.95,2.66 q -0.63,1.74 -1.44,3.45 a 14.33,14.33 0 0 1 -2,3.13 9.13,9.13 0 0 1 -2.91,2.29 8.91,8.91 0 0 1 -4.09,0.85 10.3,10.3 0 0 1 -4.41,-0.95 9.85,9.85 0 0 1 -3.54,-2.83 14.54,14.54 0 0 1 -2.38,-4.65 21.4,21.4 0 0 1 -0.87,-6.4 z"
       id="path47" />
  </g>
</svg>
